<?xml version="1.0" encoding="UTF-8" standalone="no"?>
<!DOCTYPE svg PUBLIC "-//W3C//DTD SVG 1.1//EN" "http://www.w3.org/Graphics/SVG/1.1/DTD/svg11.dtd">
<svg width="100%" height="100%" viewBox="0 0 1080 770" version="1.1" xmlns="http://www.w3.org/2000/svg" xmlns:xlink="http://www.w3.org/1999/xlink" xml:space="preserve" xmlns:serif="http://www.serif.com/" style="fill-rule:evenodd;clip-rule:evenodd;stroke-linejoin:round;stroke-miterlimit:2;">
    <g transform="matrix(0.262217,0,0,0.262217,-82.5055,-335.72)">
        <g id="Blackguards" transform="matrix(0.914377,0,0,1.08815,379.601,-364.663)">
            <path d="M4238.85,3480.02C4234.65,3475.42 4234.05,3473.42 4234.65,3460.62C4235.85,3425.23 4243.05,3392.84 4255.05,3368.44C4259.25,3359.44 4277.64,3331.65 4295.64,3306.45L4328.63,3260.86L4320.63,3253.66C4304.23,3238.86 4296.24,3211.27 4300.63,3185.08C4304.83,3161.09 4314.43,3146.89 4332.22,3138.09C4342.02,3133.29 4344.62,3132.89 4359.61,3133.69C4374.01,3134.69 4379.21,3136.09 4403.4,3146.49L4430.59,3158.09L4413.39,3177.29C4403.99,3187.69 4394.39,3198.29 4392.39,3200.68L4388.39,3205.08L4404.59,3222.28C4426.19,3245.07 4433.38,3259.47 4433.38,3280.07C4433.38,3292.67 4432.38,3297.27 4427.58,3307.86C4420.18,3323.46 4404.99,3339.05 4389.59,3346.65C4379.39,3351.65 4375.79,3352.25 4359.6,3352.25L4341.2,3352.25L4317.21,3339.85C4304.01,3332.85 4292.02,3327.85 4290.62,3328.25C4286.22,3330.05 4263.43,3363.84 4256.03,3379.44C4247.23,3398.24 4243.03,3414.83 4243.03,3430.63C4243.03,3441.03 4244.23,3445.43 4249.23,3454.82C4255.63,3466.62 4256.03,3476.02 4250.83,3482.41C4247.43,3486.41 4244.43,3485.81 4238.83,3480.01L4238.85,3480.02ZM4391.62,3325.05C4403.42,3321.85 4407.42,3313.85 4406.42,3295.26C4405.82,3283.26 4404.42,3277.86 4399.82,3269.27C4389.42,3250.27 4372.63,3242.48 4359.43,3250.47C4353.43,3254.07 4333.84,3276.06 4329.84,3283.46C4326.64,3289.66 4329.84,3297.06 4341.24,3310.05C4354.84,3325.45 4372.03,3330.65 4391.63,3325.05L4391.62,3325.05ZM4364.23,3215.27C4383.63,3204.27 4388.02,3189.08 4376.63,3172.08C4362.23,3150.88 4341.84,3144.09 4329.04,3156.28C4307.04,3177.08 4311.84,3208.87 4338.44,3218.27C4349.44,3222.27 4352.84,3221.87 4364.23,3215.27Z" style="fill:rgb(242,236,210);fill-rule:nonzero;"/>
            <path d="M4146.07,3353.45C4124.27,3340.25 4112.08,3306.06 4112.08,3258.27C4112.28,3226.28 4114.68,3214.28 4126.88,3188.09C4135.88,3168.89 4146.88,3156.1 4158.67,3150.9C4166.47,3147.5 4170.07,3147.1 4191.46,3148.5L4215.65,3149.9L4214.65,3114.11C4213.85,3081.92 4213.05,3076.72 4208.25,3062.52C4205.25,3053.92 4203.25,3046.52 4203.45,3046.32C4203.85,3046.12 4219.45,3040.72 4238.04,3034.52C4291.03,3016.72 4302.63,3009.73 4323.42,2983.73C4325.42,2981.33 4329.22,2979.33 4332.02,2979.33C4336.02,2979.33 4337.02,2980.33 4337.02,2984.33C4337.02,2993.13 4325.62,3003.13 4303.03,3013.92C4285.43,3022.32 4279.64,3026.32 4267.64,3038.31C4259.84,3046.31 4251.04,3056.51 4248.04,3060.9L4242.84,3068.7L4244.04,3326.24L4250.04,3338.24C4253.44,3344.84 4256.44,3350.84 4256.64,3351.64C4257.04,3352.64 4248.84,3353.24 4238.24,3353.24L4219.04,3353.24L4214.84,3344.84C4212.44,3340.04 4210.24,3335.84 4210.04,3335.64C4209.64,3335.24 4204.44,3338.44 4198.64,3343.04C4192.64,3347.44 4184.64,3352.44 4180.44,3354.24C4170.24,3358.44 4153.45,3358.04 4146.05,3353.44L4146.07,3353.45ZM4196.06,3324.46C4203.46,3319.66 4208.66,3305.66 4213.06,3279.27C4217.86,3251.28 4216.86,3233.48 4208.86,3210.09C4201.06,3186.3 4182.27,3166.1 4165.67,3163.9C4154.47,3162.5 4147.27,3170.1 4141.48,3189.69C4129.48,3230.88 4131.28,3267.07 4147.08,3300.07C4160.48,3328.06 4177.47,3336.66 4196.07,3324.46L4196.06,3324.46Z" style="fill:rgb(242,236,210);fill-rule:nonzero;"/>
            <path d="M3980.11,3339.85C3992.91,3303.06 3997.51,3242.27 3990.11,3208.28C3983.91,3179.49 3983.91,3179.09 3990.51,3173.29C3993.91,3170.49 4001.91,3163.69 4008.31,3158.09L4020.11,3147.69L4019.31,3165.89L4018.71,3184.09L4030.71,3173.09C4037.31,3167.09 4047.71,3159.29 4053.9,3155.49C4063.3,3149.89 4066.3,3149.09 4072.3,3150.29C4082.7,3152.09 4091.1,3161.09 4091.1,3170.29C4091.1,3178.89 4086.9,3187.89 4080.9,3192.09C4076.7,3194.89 4076.1,3194.49 4067.1,3185.29C4056.9,3174.29 4050.9,3172.89 4038.31,3178.09C4022.31,3184.69 4017.91,3203.28 4015.92,3272.27C4014.52,3318.66 4015.92,3332.06 4024.32,3344.25C4026.92,3348.25 4029.12,3351.85 4029.12,3352.25C4029.12,3352.85 4017.12,3353.25 4002.33,3353.25L3975.54,3353.25L3980.14,3339.85L3980.11,3339.85Z" style="fill:rgb(242,236,210);fill-rule:nonzero;"/>
            <path d="M3858.74,3354.85C3843.14,3350.65 3826.75,3326.66 3820.15,3298.66C3811.55,3262.67 3819.75,3239.07 3858.54,3187.08C3871.94,3169.08 3888.13,3156.89 3898.13,3156.89C3900.93,3156.89 3913.53,3163.69 3927.12,3172.49L3951.31,3188.29L3950.31,3198.29C3949.71,3203.89 3948.31,3217.69 3946.91,3229.28C3943.91,3257.27 3945.71,3312.46 3950.71,3335.66L3954.31,3353.26L3947.71,3354.46C3936.91,3356.46 3931.51,3354.06 3926.91,3344.66C3924.51,3340.06 3922.31,3336.06 3922.11,3335.66C3921.71,3335.26 3912.11,3339.46 3900.71,3345.06C3878.12,3356.06 3869.92,3358.06 3858.72,3354.86L3858.74,3354.85ZM3897.33,3323.06C3910.13,3320.06 3915.93,3317.66 3918.13,3314.66C3920.53,3311.06 3921.13,3302.06 3921.13,3264.07C3921.13,3219.48 3920.93,3217.68 3916.53,3209.08C3911.73,3200.08 3887.34,3179.29 3881.54,3179.29C3876.74,3179.29 3862.14,3195.69 3856.35,3207.88C3848.35,3223.88 3845.15,3238.07 3845.15,3257.27C3845.15,3291.66 3861.15,3326.65 3876.94,3327.25C3878.34,3327.25 3887.54,3325.45 3897.34,3323.05L3897.33,3323.06Z" style="fill:rgb(242,236,210);fill-rule:nonzero;"/>
            <path d="M3691.77,3360.05C3683.37,3355.85 3680.17,3350.65 3674.97,3332.86C3671.17,3320.26 3670.37,3310.66 3669.17,3263.28C3668.17,3233.09 3666.57,3204.29 3665.37,3199.29C3662.37,3186.29 3662.17,3186.89 3673.77,3178.29C3679.37,3174.09 3687.17,3168.49 3690.57,3165.69L3697.17,3160.89L3696.57,3237.47C3696.17,3310.85 3696.37,3314.65 3700.17,3322.25C3706.17,3334.05 3715.77,3339.85 3727.96,3338.65C3740.16,3337.45 3744.16,3333.45 3752.75,3312.66C3765.75,3281.67 3768.35,3237.08 3759.35,3203.28C3757.15,3195.08 3755.55,3188.28 3755.75,3188.08C3755.95,3187.88 3764.55,3181.88 3774.75,3174.48L3793.15,3161.28L3793.15,3355.24L3783.35,3355.24C3769.35,3355.24 3767.75,3354.24 3760.76,3340.64L3754.76,3328.44L3743.56,3341.04C3726.16,3360.84 3707.37,3367.63 3691.77,3360.04L3691.77,3360.05Z" style="fill:rgb(242,236,210);fill-rule:nonzero;"/>
            <path d="M3554.2,3489.82C3552,3489.42 3530.81,3483.22 3507.01,3476.02C3460.42,3462.22 3447.42,3460.42 3431.23,3466.22C3426.43,3467.82 3422.23,3468.82 3421.83,3468.42C3419.83,3466.62 3435.63,3452.82 3444.42,3448.82C3453.02,3444.82 3457.22,3444.22 3479.21,3444.42C3503.4,3444.62 3505.4,3444.82 3542.6,3455.82C3563.8,3462.02 3589.19,3468.62 3598.99,3470.42C3615.79,3473.82 3617.19,3473.82 3625.78,3470.42C3636.98,3466.22 3644.58,3458.82 3649.57,3447.63C3654.77,3435.83 3653.17,3429.83 3638.77,3408.64C3624.97,3388.44 3611.18,3359.85 3606.18,3341.85L3602.58,3329.25L3594.38,3334.45C3558.39,3356.84 3539.19,3358.64 3524.2,3341.05C3506,3319.25 3497.21,3270.87 3506,3240.27C3513.2,3216.28 3535.59,3178.88 3552.79,3162.89C3564.99,3151.49 3574.99,3148.09 3586.58,3151.09C3594.18,3153.29 3615.97,3166.49 3629.97,3177.88L3635.97,3182.68L3633.37,3200.28C3630.97,3215.28 3631.17,3225.87 3633.97,3271.06C3635.77,3300.25 3638.17,3329.65 3639.17,3336.25C3640.37,3343.65 3645.57,3357.65 3653.57,3374.24C3665.77,3399.43 3666.17,3400.63 3666.17,3416.23C3666.17,3428.83 3665.17,3434.23 3661.57,3441.42C3646.37,3472.21 3612.78,3491.41 3575.39,3491.01C3565.99,3490.81 3556.39,3490.41 3554.19,3489.81L3554.2,3489.82ZM3586.19,3325.46C3589.59,3323.66 3594.19,3318.06 3596.79,3313.26C3601.19,3304.46 3601.39,3303.06 3600.79,3256.27C3600.39,3219.68 3599.39,3206.88 3597.39,3202.68C3594.19,3196.68 3570.8,3180.09 3564.2,3179.09C3556.4,3177.89 3551.6,3181.49 3545.6,3192.89C3532.4,3217.68 3525.8,3251.08 3529.4,3274.27C3533,3296.86 3548.4,3322.46 3562.19,3328.46C3568.99,3331.46 3577.39,3330.46 3586.18,3325.46L3586.19,3325.46Z" style="fill:rgb(242,236,210);fill-rule:nonzero;"/>
            <path d="M3346.25,3348.65C3347.65,3345.05 3350.65,3334.45 3352.65,3325.26C3355.85,3310.06 3356.25,3297.47 3356.25,3209.29L3356.25,3110.31L3343.85,3084.31L3380.04,3069.51C3439.83,3045.12 3444.23,3042.72 3461.82,3024.92C3472.22,3014.32 3478.62,3009.32 3480.62,3010.12C3482.22,3010.72 3484.62,3011.32 3486.02,3011.32C3490.22,3011.32 3487.22,3022.52 3481.42,3027.92C3475.42,3033.72 3448.43,3049.72 3423.03,3062.51C3404.23,3071.91 3395.24,3080.51 3391.64,3093.1C3389.24,3100.9 3384.04,3188.88 3385.84,3190.48C3386.44,3191.08 3398.24,3184.88 3412.03,3176.68C3439.42,3160.48 3447.02,3157.88 3459.22,3161.28C3477.42,3166.28 3488.21,3183.28 3483.21,3199.87C3480.01,3210.87 3475.61,3216.67 3456.82,3236.66C3445.82,3248.06 3441.22,3254.46 3441.22,3258.06C3441.22,3270.26 3467.81,3324.65 3484.21,3346.24L3491.21,3355.44L3450.41,3354.24L3446.81,3348.04C3444.81,3344.44 3437.21,3328.24 3430.21,3312.05C3423.01,3295.65 3415.01,3280.06 3412.41,3277.46C3408.01,3273.06 3407.01,3272.86 3401.41,3275.26C3397.41,3276.86 3393.81,3280.66 3391.01,3286.66C3387.21,3294.46 3386.81,3298.06 3387.61,3315.85C3388.21,3330.65 3389.61,3338.84 3392.81,3345.84L3397.01,3355.24L3343.43,3355.24L3346.23,3348.64L3346.25,3348.65ZM3420.43,3249.07C3447.02,3225.48 3451.22,3219.68 3451.22,3208.28C3451.22,3193.88 3441.82,3183.29 3429.02,3183.29C3420.22,3183.29 3414.42,3187.49 3401.03,3203.69L3391.23,3215.49L3391.23,3243.48C3391.23,3262.28 3392.03,3271.27 3393.43,3271.27C3394.63,3271.27 3406.83,3261.27 3420.42,3249.07L3420.43,3249.07Z" style="fill:rgb(242,236,210);fill-rule:nonzero;"/>
            <path d="M3268.27,3349.85C3253.87,3344.65 3245.88,3338.25 3237.28,3325.06C3224.88,3306.06 3220.28,3288.27 3220.48,3261.27C3220.48,3233.48 3223.88,3219.28 3236.28,3193.89C3247.28,3171.69 3264.07,3153.5 3280.67,3145.9C3289.87,3141.7 3293.87,3140.9 3305.66,3141.7C3318.06,3142.3 3320.26,3143.1 3324.46,3147.9C3327.06,3151.1 3329.26,3155.9 3329.26,3158.9C3329.26,3166.5 3321.06,3182.09 3316.86,3182.89C3314.86,3183.29 3308.06,3179.69 3301.86,3174.69C3286.66,3163.09 3282.86,3161.29 3274.67,3161.29C3260.67,3161.29 3246.68,3182.89 3240.48,3213.68C3236.48,3232.88 3236.48,3244.27 3240.28,3262.27C3250.08,3309.06 3282.87,3336.65 3316.26,3326.46C3321.66,3324.86 3326.26,3323.66 3326.66,3323.86C3326.86,3324.26 3324.86,3328.26 3322.06,3332.86C3312.06,3349.46 3288.47,3357.05 3268.27,3349.86L3268.27,3349.85Z" style="fill:rgb(242,236,210);fill-rule:nonzero;"/>
            <path d="M3106.3,3354.45C3097.5,3350.45 3087.7,3339.85 3081.91,3328.46C3064.71,3294.67 3063.31,3265.47 3077.31,3235.88C3084.51,3220.28 3104.9,3190.09 3117.5,3176.49C3127.3,3165.89 3147.49,3154.1 3151.69,3156.49C3153.09,3157.29 3164.89,3164.69 3177.88,3173.09L3201.67,3188.29L3200.47,3199.29C3195.27,3253.68 3194.67,3272.27 3196.87,3299.67C3198.27,3315.47 3200.47,3333.86 3201.87,3340.66L3204.67,3353.26L3197.87,3354.46C3187.07,3356.46 3181.67,3354.06 3177.07,3344.66C3174.67,3340.06 3172.47,3335.86 3172.07,3335.46C3171.67,3335.06 3162.47,3339.46 3151.27,3345.06C3129.07,3356.46 3116.28,3359.26 3106.28,3354.46L3106.3,3354.45ZM3152.89,3322.06C3171.49,3317.26 3171.29,3318.06 3171.29,3264.07C3171.29,3212.08 3170.49,3208.08 3159.09,3198.68C3140.49,3183.48 3134.7,3179.28 3131.7,3179.28C3126.9,3179.28 3112.5,3195.48 3106.71,3207.47C3095.91,3229.67 3092.51,3257.46 3097.51,3281.65C3100.71,3297.45 3112.31,3320.64 3118.91,3324.24C3124.91,3327.64 3133.51,3327.04 3152.9,3322.04L3152.89,3322.06Z" style="fill:rgb(242,236,210);fill-rule:nonzero;"/>
            <path d="M3007.33,3350.25C3007.33,3349.65 3009.33,3343.45 3011.93,3336.65C3016.33,3324.45 3016.33,3322.65 3016.93,3209.88C3017.53,3091.71 3017.13,3084.11 3009.53,3075.91L3005.53,3071.71L3025.73,3053.11L3045.93,3034.31L3044.73,3133.29C3044.13,3187.88 3044.33,3249.26 3045.33,3269.86C3047.13,3305.65 3050.33,3340.04 3052.53,3347.84C3053.53,3350.84 3051.53,3351.24 3030.53,3351.24C3017.73,3351.24 3007.34,3350.84 3007.34,3350.24L3007.33,3350.25Z" style="fill:rgb(242,236,210);fill-rule:nonzero;"/>
            <path d="M2682,3373.84C2681.4,3372.24 2681.6,3368.44 2682.6,3365.64C2684.8,3359.64 2689.8,3357.84 2725.99,3350.24C2775.38,3340.04 2775.38,3340.04 2775.98,3216.87C2776.38,3145.89 2775.78,3129.49 2773.58,3125.29C2767.18,3113.69 2760.78,3114.49 2734.19,3130.29C2722.19,3137.49 2710.8,3143.89 2708.8,3144.49C2703.8,3146.09 2695.8,3140.29 2694.2,3134.29C2692,3125.29 2694.2,3123.29 2707,3123.29C2725.8,3123.29 2736.99,3116.29 2779.38,3078.1C2837.37,3026.11 2851.96,3015.51 2875.16,3008.52C2888.76,3004.52 2915.55,3004.32 2928.15,3008.12C2957.34,3016.92 2973.14,3044.11 2967.54,3075.11C2963.54,3096.31 2954.94,3109.7 2920.55,3148.29C2914.15,3155.49 2909.15,3161.69 2909.55,3162.09C2909.95,3162.49 2921.15,3167.49 2934.34,3173.29C2962.93,3186.09 2975.73,3197.28 2982.33,3215.28C2987.93,3230.88 2987.93,3280.07 2982.33,3299.06C2975.33,3323.05 2961.13,3339.45 2938.74,3349.25C2917.94,3358.45 2905.55,3359.65 2809.37,3361.05L2718.39,3362.25L2700.79,3369.65C2685.79,3375.85 2682.99,3376.65 2681.99,3373.85L2682,3373.84ZM2902.75,3343.45C2916.35,3337.45 2929.54,3323.25 2935.34,3308.06C2942.34,3290.26 2943.34,3253.07 2937.54,3235.68C2932.14,3219.88 2925.54,3209.09 2913.55,3196.69C2897.95,3180.29 2883.36,3175.09 2866.16,3180.29C2844.36,3186.69 2831.57,3205.48 2830.77,3231.88C2830.17,3250.68 2834.97,3260.47 2847.37,3266.87C2856.57,3271.47 2868.17,3272.67 2870.36,3269.27C2870.96,3268.27 2870.76,3267.27 2869.56,3267.27C2865.16,3267.27 2855.36,3254.87 2855.36,3249.07C2855.36,3237.67 2864.36,3227.27 2874.36,3227.27C2891.16,3227.27 2901.75,3255.26 2891.56,3272.06C2876.76,3295.85 2839.57,3286.66 2821.38,3254.66L2815.78,3244.66L2814.38,3255.66C2813.58,3261.66 2813.38,3277.66 2813.78,3291.45C2814.38,3311.65 2815.18,3317.64 2818.38,3323.04C2823.98,3332.44 2835.18,3341.04 2847.77,3345.63C2862.37,3350.83 2888.16,3349.83 2902.76,3343.43L2902.75,3343.45ZM2818.97,3211.88C2823.37,3197.48 2834.97,3185.49 2865.36,3164.49C2881.36,3153.49 2900.75,3137.9 2908.75,3130.1C2926.35,3112.3 2928.95,3104.51 2925.75,3076.31C2923.35,3055.91 2918.55,3043.12 2909.15,3032.52C2890.15,3010.72 2862.96,3010.72 2839.77,3032.32C2823.97,3046.92 2817.57,3061.11 2815.18,3087.11C2812.98,3111.9 2812.78,3219.28 2814.98,3219.28C2815.98,3219.28 2817.78,3215.88 2818.98,3211.88L2818.97,3211.88Z" style="fill:rgb(242,236,210);fill-rule:nonzero;"/>
        </g>
        <g id="Righteous" transform="matrix(1.12485,0,0,0.994758,-39.2852,-32.1028)">
            <path d="M1543.85,3484.02C1538.65,3477.42 1538.45,3468.22 1542.65,3435.83C1546.45,3408.24 1554.85,3381.44 1565.44,3363.25C1569.84,3356.05 1586.84,3331.46 1603.43,3308.46L1633.62,3266.67L1624.42,3256.87C1613.42,3245.07 1608.22,3233.88 1605.82,3217.08C1599.42,3170.09 1626.82,3134.1 1666.41,3137.9C1677.41,3138.9 1693.2,3144.5 1726.2,3159.1L1735.8,3163.3L1714.8,3186.69L1693.8,3209.88L1709.8,3227.08C1719.6,3237.68 1728.2,3249.28 1732.19,3257.27C1737.79,3268.67 1738.59,3272.07 1738.59,3286.26C1738.59,3299.66 1737.59,3304.06 1732.99,3313.45C1721.99,3336.04 1695.8,3355.24 1672.2,3358.24C1657.8,3360.04 1640.61,3355.24 1619.41,3343.24C1609.61,3337.64 1600.01,3333.24 1598.01,3333.24C1593.61,3333.24 1572.02,3363.03 1562.42,3382.23C1554.22,3399.03 1547.62,3424.02 1547.62,3438.22C1547.62,3446.22 1548.82,3450.42 1552.82,3456.42C1565.62,3475.02 1557.02,3500.81 1543.82,3484.01L1543.85,3484.02ZM1702.61,3327.46C1711.41,3322.46 1714.61,3311.66 1712.01,3296.07C1709.41,3280.27 1704.61,3270.28 1695.01,3260.88C1680.61,3247.08 1667.22,3249.08 1651.42,3267.88C1630.62,3292.07 1630.22,3293.67 1640.62,3307.67C1648.62,3318.67 1658.82,3326.67 1669.01,3330.46C1678.21,3333.86 1694,3332.26 1702.6,3327.46L1702.61,3327.46ZM1671.82,3219.48C1695.21,3203.88 1693.02,3179.69 1666.62,3161.89C1650.82,3151.09 1637.43,3153.69 1626.83,3169.89C1620.23,3180.09 1618.43,3189.69 1621.43,3199.28C1628.23,3222.27 1652.62,3232.07 1671.82,3219.48Z" style="fill:rgb(242,236,210);fill-rule:nonzero;"/>
            <path d="M1456.07,3349.25C1448.27,3344.45 1443.07,3333.85 1438.47,3313.06C1435.87,3301.86 1434.87,3286.07 1434.47,3249.27C1434.27,3222.28 1433.07,3196.68 1431.87,3192.28C1428.27,3178.68 1428.87,3176.68 1440.27,3168.29C1445.87,3164.09 1453.47,3158.49 1456.87,3155.89L1463.07,3151.29L1462.87,3228.67C1462.67,3301.45 1462.87,3306.65 1466.47,3314.05C1468.67,3318.25 1473.07,3323.45 1476.47,3325.45C1484.87,3330.45 1499.46,3330.45 1506.06,3325.45C1512.26,3320.45 1520.46,3302.66 1525.86,3281.86C1532.06,3259.27 1532.06,3220.67 1526.06,3196.48C1523.66,3186.68 1521.86,3178.48 1522.06,3178.28C1522.46,3178.28 1531.06,3172.08 1541.26,3164.68L1559.66,3151.28L1559.66,3345.24L1547.86,3345.24C1537.46,3345.24 1535.46,3344.64 1531.86,3340.04C1529.66,3337.24 1526.86,3331.84 1525.66,3328.04C1524.46,3324.24 1522.26,3321.24 1520.86,3321.24C1519.46,3321.24 1513.66,3326.64 1508.06,3333.04C1491.26,3352.24 1471.27,3358.43 1456.07,3349.24L1456.07,3349.25Z" style="fill:rgb(242,236,210);fill-rule:nonzero;"/>
            <path d="M1327.5,3353.45C1309.7,3350.05 1292.11,3332.65 1284.71,3311.46C1279.11,3295.26 1276.91,3267.27 1279.51,3246.07C1284.91,3200.88 1309.1,3156.69 1334.7,3145.09C1345.1,3140.29 1362.29,3140.29 1372.69,3145.09C1414.68,3164.09 1429.68,3249.07 1401.28,3307.25C1386.28,3338.04 1353.69,3358.44 1327.5,3353.44L1327.5,3353.45ZM1370.89,3329.46C1385.29,3322.86 1390.29,3313.06 1393.68,3284.87C1397.28,3253.68 1390.68,3218.48 1376.48,3193.49C1365.48,3174.49 1355.68,3167.3 1340.29,3167.3C1323.69,3167.3 1311.7,3178.1 1304.5,3199.29C1298.7,3216.29 1299.7,3249.08 1306.5,3271.87C1315.9,3303.66 1327.9,3322.86 1342.69,3329.46C1352.89,3334.06 1360.49,3334.06 1370.88,3329.46L1370.89,3329.46Z" style="fill:rgb(242,236,210);fill-rule:nonzero;"/>
            <path d="M1173.74,3357.45C1150.75,3350.05 1130.55,3325.06 1122.75,3294.26C1121.15,3287.86 1119.75,3274.46 1119.75,3264.67C1119.75,3196.89 1163.34,3144.3 1209.53,3156.09C1239.32,3163.69 1254.72,3183.48 1243.92,3200.08C1241.72,3203.28 1222.12,3224.47 1200.33,3246.87C1178.53,3269.46 1159.54,3289.66 1158.14,3291.66C1155.74,3294.86 1156.54,3296.86 1164.54,3308.06C1184.34,3335.85 1210.13,3343.65 1238.92,3330.45C1244.92,3327.65 1249.72,3326.25 1249.72,3327.05C1249.72,3331.25 1232.12,3345.85 1220.13,3351.64C1209.53,3356.84 1204.13,3358.24 1192.74,3358.64C1185.14,3358.84 1176.54,3358.44 1173.74,3357.44L1173.74,3357.45ZM1183.74,3248.87C1213.13,3217.08 1216.93,3211.08 1213.93,3199.68C1209.73,3184.48 1191.73,3169.29 1177.74,3169.29C1155.94,3169.29 1145.95,3194.28 1148.35,3241.87C1149.95,3269.86 1151.15,3277.26 1154.75,3277.26C1156.15,3277.26 1169.15,3264.46 1183.74,3248.87Z" style="fill:rgb(242,236,210);fill-rule:nonzero;"/>
            <path d="M1036.57,3344.85C1037.37,3342.25 1039.57,3335.25 1041.37,3329.25C1044.37,3319.65 1044.77,3306.66 1044.77,3229.47L1044.77,3140.89L1033.77,3137.29C1027.77,3135.49 1006.78,3127.09 987.38,3118.69C967.98,3110.29 948.19,3102.49 943.39,3101.29C931.39,3098.69 914.2,3098.89 905.4,3102.09C898.6,3104.49 898.2,3104.49 899.6,3101.49C906,3089.69 920.8,3082.69 941.79,3081.69C964.38,3080.69 979.18,3084.69 1035.57,3107.08L1046.37,3111.48L1045.37,3097.28C1044.57,3086.88 1043.17,3081.28 1039.97,3077.28C1037.77,3074.08 1035.77,3070.68 1035.77,3069.48C1035.77,3068.48 1044.17,3059.88 1054.37,3050.48L1072.77,3033.48L1074.77,3121.86L1081.77,3124.46C1085.57,3125.86 1092.77,3127.06 1097.77,3127.06C1114.97,3127.26 1131.76,3112.66 1131.76,3097.47C1131.76,3090.87 1131.96,3090.67 1135.16,3093.67C1137.96,3096.67 1138.16,3098.07 1135.96,3105.67C1130.96,3122.47 1108.97,3137.26 1083.77,3141.06L1074.77,3142.26L1073.57,3155.26C1070.17,3189.45 1072.97,3286.43 1078.37,3329.82L1080.97,3349.22L1058.18,3349.22C1035.39,3349.22 1035.39,3349.22 1036.58,3344.82L1036.57,3344.85Z" style="fill:rgb(242,236,210);fill-rule:nonzero;"/>
            <path d="M949.59,3324.86C957.19,3302.27 958.79,3287.67 958.59,3238.08C958.59,3184.49 956.79,3175.09 945.79,3167.3C933.19,3158.3 921.8,3159.5 908.8,3171.5C893.6,3185.5 893,3188.9 894.8,3252.68C896,3298.67 896.8,3310.27 900,3320.26C902,3326.86 903.8,3332.46 903.8,3332.86C903.8,3333.06 893.4,3333.26 880.81,3333.26C863.81,3333.26 857.82,3332.66 857.82,3330.86C857.82,3329.46 858.82,3322.86 859.82,3316.26C866.02,3279.47 865.82,3137.5 859.62,3092.31C855.22,3060.12 853.02,3063.52 881.82,3056.32C928.81,3044.52 946.81,3036.52 976.2,3014.13C991.4,3002.73 994.4,3001.13 999.59,3002.33C1005.19,3003.53 1005.39,3003.93 1003.19,3008.73C1001.39,3012.53 991.79,3018.33 962.8,3032.72C919.81,3054.12 909.81,3061.91 900.41,3082.11C895.01,3093.91 894.81,3095.51 894.21,3131.9C893.81,3152.5 894.01,3169.29 894.61,3169.29C895.41,3169.29 899.61,3166.89 904.21,3164.09C936.6,3143.69 961,3144.49 975.19,3166.29C982.59,3177.69 983.79,3187.89 985.39,3254.27C986.79,3314.46 986.99,3318.66 990.99,3324.25C993.19,3327.65 995.79,3331.45 996.59,3332.85C997.79,3334.65 992.19,3335.25 972,3335.25L946.01,3335.25L949.61,3324.85L949.59,3324.86Z" style="fill:rgb(242,236,210);fill-rule:nonzero;"/>
            <path d="M776.43,3518.21C770.83,3516.61 750.64,3508.81 731.44,3500.61C679.25,3478.22 668.65,3475.62 648.86,3480.21C642.26,3481.61 636.66,3482.61 636.26,3482.41C636.06,3482.01 639.86,3478.21 644.66,3473.61C655.06,3464.01 665.26,3460.81 685.05,3460.81C703.45,3461.01 716.64,3464.61 759.43,3481.01C809.22,3500.21 829.21,3507.2 835.61,3507.2C843.21,3507.2 860,3498.2 864.8,3491.6C867.6,3487.8 868.8,3483 868.8,3475.2C868.8,3465 867.4,3461.8 850,3431.21C821.41,3381.42 806.61,3351.43 803.61,3338.63C801.61,3329.63 800.41,3327.23 798.01,3328.03C796.21,3328.43 787.21,3332.23 777.81,3336.03C741.22,3351.43 724.22,3342.63 708.83,3301.24C701.63,3281.64 699.83,3249.45 704.63,3228.66C710.43,3203.87 728.22,3174.27 747.82,3156.48C769.22,3137.28 787.21,3139.28 815.2,3164.28C832.6,3179.88 835.2,3187.27 832.2,3214.07C831,3225.27 830.4,3236.27 831,3238.26C831.4,3240.46 832.6,3262.45 833.6,3287.25C835.6,3339.04 836.4,3341.84 856.99,3390.43C872.59,3427.22 876.39,3441.42 876.39,3462.61C876.39,3492.2 864.19,3508 834.2,3517.2C819,3522 792.21,3522.4 776.41,3518.2L776.43,3518.21ZM787.63,3317.85C798.23,3310.05 798.83,3306.45 799.43,3251.46L800.03,3200.67L786.83,3187.87C759.04,3161.28 752.44,3162.68 739.04,3198.47C721.44,3245.06 722.64,3271.25 744.24,3303.45C754.64,3319.05 761.84,3323.85 773.63,3322.65C778.43,3322.05 784.63,3319.85 787.63,3317.85Z" style="fill:rgb(242,236,210);fill-rule:nonzero;"/>
            <g id="i">
                <path d="M630.66,3355.85C631.26,3353.85 633.26,3343.65 635.06,3333.26C641.26,3297.67 636.66,3248.28 623.26,3204.89L620.26,3195.49L636.66,3176.69C645.46,3166.29 653.06,3157.89 653.26,3158.09C653.66,3158.29 657.46,3201.08 661.66,3252.87C667.66,3322.25 670.46,3348.65 672.86,3353.05L676.06,3359.25L652.87,3359.25C631.67,3359.25 629.68,3358.85 630.67,3355.85L630.66,3355.85Z" style="fill:rgb(242,236,210);fill-rule:nonzero;"/>
                <path d="M628.06,3100.91C620.06,3096.71 615.26,3088.31 615.06,3078.52C614.66,3056.72 634.86,3049.93 645.85,3067.92C651.05,3076.32 651.25,3093.31 646.45,3097.91C641.25,3102.51 633.45,3103.71 628.05,3100.91L628.06,3100.91Z" style="fill:rgb(242,236,210);fill-rule:nonzero;"/>
            </g>
            <path d="M640.86,3521.61C624.86,3512.81 613.07,3504.01 602.07,3493.02C581.67,3472.62 575.68,3457.43 568.88,3410.24C563.28,3370.25 552.48,3314.86 543.89,3281.27C536.89,3254.48 517.9,3213.69 506.3,3200.89C493.1,3186.09 475.11,3181.69 457.71,3188.69C447.31,3192.69 443.91,3200.29 443.91,3219.08C443.91,3231.08 443.31,3233.48 439.51,3236.08C432.51,3241.08 429.11,3236.68 430.91,3224.48C432.71,3209.48 437.51,3202.68 467.1,3171.29C497.69,3138.7 522.09,3107.7 529.69,3091.31C533.89,3082.51 534.89,3077.31 534.89,3065.32C534.89,3046.92 528.89,3032.73 513.89,3015.33C490.5,2988.34 461.3,2985.94 438.11,3009.13C428.31,3018.93 422.91,3029.13 418.51,3045.92C414.91,3060.52 415.11,3072.51 422.71,3213.28C428.31,3315.06 428.91,3321.66 433.31,3330.65C437.31,3339.25 442.71,3342.45 462.1,3347.45L478.3,3351.85L485.1,3344.45C492.1,3336.85 497.9,3335.25 501.9,3340.25C505.7,3344.85 502.5,3350.45 493.9,3354.25C486.5,3357.65 480.7,3357.85 416.72,3356.65L347.74,3355.25L338.94,3364.25C334.14,3369.25 328.94,3373.25 327.14,3373.25C322.74,3373.25 323.14,3365.65 327.74,3358.05C331.34,3352.25 333.54,3351.25 354.73,3346.45C367.33,3343.45 380.72,3339.05 384.32,3336.45C395.92,3328.65 396.72,3323.45 393.12,3263.27C391.32,3234.08 388.52,3185.69 386.92,3155.49C383.32,3092.9 383.52,3093.3 368.12,3093.3C361.92,3093.3 355.12,3095.3 347.12,3099.3C340.52,3102.7 331.92,3105.9 327.72,3106.5C321.32,3107.5 319.92,3107.1 316.92,3102.7C311.32,3093.9 316.32,3091.1 329.12,3095.7C334.12,3097.5 336.92,3097.5 340.52,3095.9C343.32,3094.5 364.51,3072.71 387.91,3047.31C435.1,2996.12 448.7,2983.52 467.69,2974.73C482.29,2967.93 503.48,2965.53 517.08,2969.13C548.47,2977.53 568.07,3012.32 565.27,3055.11C563.27,3088.5 553.47,3106.3 517.68,3141.69C504.48,3154.69 493.89,3165.88 493.89,3166.68C494.09,3167.48 500.89,3173.48 509.49,3179.68C551.28,3210.27 574.28,3240.47 587.47,3281.26C597.87,3313.25 597.87,3333.65 587.47,3364.04C579.67,3387.43 577.67,3417.43 582.67,3437.22C589.87,3465.61 609.06,3493.01 630.66,3505.4C646.06,3514.2 650.66,3513.4 661.45,3500.4C665.45,3495.6 669.05,3496.6 671.85,3503.2C676.25,3514 667.45,3527.19 655.85,3527.19C653.05,3527.19 646.45,3524.59 640.85,3521.59L640.86,3521.61Z" style="fill:rgb(242,236,210);fill-rule:nonzero;"/>
        </g>
        <g id="Guitar" transform="matrix(1,0,0,1,203.364,-13.7285)">
            <g id="guitar-body" serif:id="guitar body">
                <path d="M2097.53,4199.86C2032.74,4191.06 1973.96,4170.27 1928.17,4139.87C1906.77,4125.67 1870.18,4089.68 1856.99,4069.69C1842.39,4047.69 1828.4,4020.5 1831.2,4019.5C1835.8,4018.1 1872.99,3992.51 1885.99,3981.71C1917.98,3955.72 1947.78,3918.72 1962.37,3886.93C1978.37,3852.34 1983.17,3829.34 1985.76,3776.15C1989.56,3692.57 1997.96,3608.19 2011.55,3513.21C2022.35,3438.43 2028.95,3412.43 2051.94,3355.25C2068.54,3313.86 2080.33,3292.66 2094.33,3278.67C2104.33,3268.67 2124.92,3255.28 2130.32,3255.28C2130.92,3255.28 2131.52,3294.87 2131.52,3343.46L2131.52,3431.44L2120.12,3444.84C2056.93,3519.42 2043.34,3635 2086.53,3728.78C2095.33,3747.58 2112.72,3773.77 2123.32,3784.17L2131.52,3791.97L2131.52,3850.76C2131.52,3905.95 2131.72,3909.55 2135.12,3908.15C2136.92,3907.35 2143.12,3905.15 2148.72,3903.15C2160.72,3898.95 2170.52,3894.15 2178.11,3888.35C2187.11,3881.75 2199.11,3862.16 2204.3,3845.36C2217.5,3803.57 2219.3,3752.98 2219.3,3434.25C2219.3,3187.11 2219.1,3177.91 2210.7,3161.71C2208.9,3158.11 2205.3,3153.91 2202.5,3152.11C2198.1,3149.31 2197.1,3149.31 2190.7,3152.31C2181.7,3156.51 2173.7,3166.51 2155.71,3195.3C2142.11,3217.1 2128.32,3233.29 2123.32,3233.29C2117.32,3233.29 2109.92,3220.69 2101.92,3195.9C2097.32,3181.7 2093.52,3168.91 2093.52,3167.71C2093.52,3166.31 2095.52,3165.91 2099.12,3166.51C2103.52,3167.51 2099.92,3162.91 2079.12,3141.32C2050.53,3111.73 2023.73,3078.93 2013.93,3061.74C2002.53,3041.74 1999.53,3028.35 1999.53,2998.55C1999.53,2974.16 1999.93,2971.16 2006.13,2953.16C2014.33,2929.37 2033.32,2899.77 2054.72,2877.38C2073.92,2857.18 2094.11,2846.39 2117.11,2843.79L2131.51,2842.19L2131.51,3173.51L2136.11,3172.31C2156.91,3166.11 2174.5,3139.92 2193.3,3086.93C2197.9,3074.13 2207.7,3052.54 2215.3,3038.94C2222.7,3025.54 2239.09,2995.95 2251.49,2973.35C2297.28,2890.37 2328.27,2841.18 2348.07,2819.98C2377.06,2788.99 2411.06,2777.39 2446.45,2786.39C2484.24,2796.19 2511.64,2838.98 2524.63,2908.76C2531.43,2946.55 2530.43,3015.74 2522.23,3058.93C2516.43,3089.92 2503.23,3132.91 2490.04,3164.31C2480.44,3187.1 2449.05,3258.29 2440.85,3275.89L2432.65,3293.49L2449.65,3308.89C2458.85,3317.49 2475.84,3333.08 2487.44,3343.48C2520.03,3373.27 2534.03,3396.87 2545.43,3442.26C2555.03,3479.85 2557.83,3508.05 2558.83,3579.23C2560.63,3693 2552.63,3766.39 2532.04,3825.97C2509.65,3890.76 2474.45,3924.55 2415.87,3937.15C2382.68,3944.35 2361.68,3945.55 2250.51,3946.35C2190.12,3946.95 2138.54,3947.75 2136.14,3948.35L2131.54,3949.15L2131.54,4203.09L2125.14,4202.89C2121.54,4202.69 2109.14,4201.49 2097.55,4199.89L2097.53,4199.86ZM2393.66,3901.33C2440.05,3886.73 2467.04,3835.94 2480.84,3737.17C2486.24,3697.98 2485.64,3611.4 2479.84,3573.61C2471.64,3522.02 2457.84,3476.23 2437.45,3434.04C2420.25,3398.45 2401.06,3379.25 2382.46,3379.25C2355.27,3379.25 2325.27,3422.44 2312.48,3480.23C2307.48,3502.03 2306.48,3556.01 2310.28,3579.61C2317.88,3625.6 2339.67,3653.39 2364.07,3647.99C2367.67,3647.39 2371.07,3646.39 2371.87,3645.79C2372.67,3645.39 2369.27,3638.99 2364.47,3631.59C2351.87,3611.99 2347.07,3596.2 2347.07,3574.2C2347.07,3528.01 2368.07,3495.62 2387.86,3511.01C2394.06,3516.01 2402.26,3534 2407.66,3554.6C2416.06,3586.19 2414.86,3648.98 2405.26,3683.17C2398.06,3709.16 2385.66,3726.96 2372.47,3730.36C2342.08,3737.96 2302.09,3681.77 2285.49,3608.19L2281.89,3592.19L2281.69,3690.17C2281.69,3793.95 2282.29,3804.74 2291.49,3831.94C2298.69,3853.74 2317.88,3879.93 2335.68,3892.13C2345.88,3899.33 2362.07,3904.93 2372.87,3905.13C2377.27,3905.13 2386.67,3903.33 2393.67,3901.33L2393.66,3901.33ZM2299.28,3413.24C2309.08,3382.45 2320.88,3361.25 2354.47,3314.26C2430.85,3207.08 2444.65,3181.49 2454.65,3126.3C2459.05,3101.71 2460.65,3043.72 2457.65,3014.13C2449.45,2933.75 2428.66,2879.96 2398.06,2859.36C2389.46,2853.76 2387.26,2853.16 2376.46,2853.76C2367.26,2854.36 2362.26,2855.96 2355.66,2860.36C2321.47,2883.15 2290.87,2958.94 2283.68,3039.32C2282.28,3053.72 2281.48,3140.7 2281.68,3274.27L2281.88,3486.22L2287.48,3459.23C2290.68,3444.43 2296.08,3423.64 2299.28,3413.24Z" style="fill:rgb(242,236,210);fill-rule:nonzero;"/>
                <path d="M1803,4016.9C1782,4005.9 1775.21,3975.51 1790.6,3961.11C1795,3956.91 1796,3956.71 1801.6,3959.11C1805,3960.51 1808.6,3963.11 1809.8,3964.91C1811.4,3967.51 1811.6,3967.11 1810.8,3963.11C1801.2,3921.72 1797.2,3852.33 1801.4,3803.15C1811.2,3689.78 1844.59,3566.8 1901.18,3436.23C1925.97,3378.64 1961.77,3310.26 1978.96,3288.06C1985.36,3279.46 1986.36,3276.86 1986.16,3267.86C1985.96,3261.86 1982.76,3248.06 1977.96,3233.87C1970.36,3211.28 1963.56,3194.88 1920.77,3095.9C1910.17,3071.31 1897.38,3038.91 1892.18,3023.92L1882.58,2996.33L1882.78,2967.34C1882.98,2942.75 1883.78,2935.35 1888.18,2918.55C1894.38,2895.76 1911.37,2858.96 1924.77,2839.77C1959.76,2789.78 2008.35,2757.39 2048.94,2757.39C2054.14,2757.39 2069.74,2755.99 2083.53,2754.39C2097.33,2752.79 2113.72,2750.99 2120.12,2750.19L2131.52,2748.79L2131.52,2776.18C2131.52,2793.98 2130.72,2803.37 2129.32,2803.37C2128.32,2803.37 2122.12,2800.97 2115.92,2797.97C2105.12,2792.77 2102.92,2792.57 2074.53,2792.37C2044.14,2792.37 2023.74,2795.37 2017.34,2800.77C2015.74,2802.17 2012.74,2803.37 2011.14,2803.37C2009.34,2803.37 2006.94,2804.57 2005.74,2806.17C2004.34,2807.77 1998.74,2811.57 1993.14,2814.37C1979.54,2821.57 1949.55,2854.16 1949.55,2861.96C1949.55,2863.76 1948.95,2865.36 1947.95,2865.36C1947.15,2865.36 1944.35,2870.96 1941.95,2877.96C1939.35,2884.76 1936.55,2892.16 1935.55,2894.36C1934.55,2896.56 1931.95,2908.16 1929.55,2920.15C1925.95,2938.55 1925.35,2945.94 1926.55,2969.14C1927.15,2984.14 1928.95,3001.33 1930.35,3007.33C1931.95,3013.33 1934.75,3025.13 1936.75,3033.32C1939.95,3047.52 1948.75,3065.71 1964.34,3090.91C1975.54,3108.71 1991.93,3125.5 2023.93,3152.3C2062.52,3184.49 2059.12,3181.69 2082.12,3199.09C2092.72,3207.09 2101.52,3214.09 2101.52,3214.49C2101.52,3214.89 2094.52,3221.69 2086.12,3229.69C2026.73,3285.08 1998.74,3315.87 1975.94,3351.06C1949.95,3390.65 1929.15,3442.64 1918.35,3494.23C1913.35,3517.02 1912.75,3524.62 1912.75,3556.22C1912.95,3588.81 1913.35,3594.01 1918.15,3612.01C1921.15,3623.01 1927.75,3641 1932.75,3652C1945.75,3680.19 1954.75,3706.99 1958.74,3729.18C1963.54,3757.17 1961.74,3804.96 1954.74,3832.56C1941.94,3883.75 1916.55,3926.74 1882.56,3955.73C1849.97,3983.52 1832.57,3988.72 1818.77,3975.33C1814.77,3971.53 1811.57,3969.33 1811.57,3970.53C1811.57,3972.73 1823.37,4009.52 1826.57,4017.72C1827.77,4020.72 1826.77,4021.12 1819.37,4021.12C1814.57,4020.92 1807.17,4019.12 1802.97,4016.92L1803,4016.9Z" style="fill:rgb(242,236,210);fill-rule:nonzero;"/>
            </g>
            <g id="guitar-neck" serif:id="guitar neck">
                <path d="M2164.72,3024.92C2164.12,3017.92 2162.72,2953.94 2161.52,2882.35C2160.32,2810.97 2156.32,2596.21 2152.52,2405.46C2148.72,2214.7 2144.72,2005.55 2143.52,1940.56C2142.32,1875.77 2140.92,1807.99 2140.32,1790.19L2139.12,1758L2121.72,1753.6C2083.93,1744.2 2072.53,1735.4 2056.73,1703.01C2028.54,1645.42 2018.94,1638.42 1979.75,1648.22C1959.35,1653.42 1954.16,1653.42 1943.76,1647.82C1940.56,1646.02 1939.56,1643.62 1939.56,1636.82C1939.56,1628.42 1939.76,1628.02 1948.96,1624.62C1957.76,1621.22 1958.96,1621.22 1967.76,1624.22C1984.96,1630.42 1994.35,1628.42 2007.95,1616.02C2012.75,1611.62 2019.55,1606.62 2023.15,1604.82C2026.55,1603.02 2029.55,1600.62 2029.55,1599.42C2029.55,1598.42 2025.95,1582.42 2021.55,1564.03C2003.95,1489.45 2005.15,1474.65 2032.15,1426.86C2048.35,1398.47 2058.14,1388.07 2078.54,1378.47C2099.34,1368.67 2115.93,1351.88 2134.13,1322.28C2148.73,1298.49 2153.73,1292.69 2158.12,1294.29C2161.12,1295.29 2178.92,1330.88 2183.51,1344.48C2187.11,1355.68 2185.31,1372.87 2178.91,1385.47L2173.51,1396.27L2177.51,1418.86C2180.91,1437.66 2181.91,1453.85 2183.11,1514.44C2183.91,1554.43 2185.11,1588.02 2185.91,1588.82C2187.51,1590.22 2244.9,1596.02 2283.49,1598.62C2302.29,1599.82 2305.49,1599.62 2314.08,1595.82C2324.88,1591.22 2335.68,1590.42 2345.07,1593.82C2353.07,1596.62 2356.07,1607.42 2350.47,1613.62C2344.47,1620.22 2334.47,1623.82 2328.47,1621.62C2313.87,1616.02 2297.28,1621.62 2270.08,1641.22C2259.28,1649.02 2248.08,1656.42 2245.29,1657.62C2239.29,1660.42 2234.69,1669.62 2231.49,1684.61C2230.29,1690.21 2228.89,1696.01 2228.29,1697.81C2227.69,1700.21 2229.09,1701.61 2232.89,1702.41C2252.29,1707.21 2259.68,1710.21 2259.08,1712.81C2258.68,1714.41 2245.28,1721.41 2228.89,1728.41C2191.1,1744.81 2180.5,1751.6 2177.3,1761.2C2175.5,1766.6 2174.9,1785.99 2175.3,1830.58C2175.5,1864.77 2176.5,2029.34 2177.5,2196.5C2178.5,2363.66 2180.5,2607.21 2181.7,2737.58C2183.3,2909.74 2183.3,2975.93 2181.7,2978.93C2180.5,2981.33 2176.9,2994.93 2173.5,3009.52C2170.3,3023.92 2167.1,3036.31 2166.7,3036.71C2166.3,3037.31 2165.3,3031.91 2164.7,3024.91L2164.72,3024.92ZM2198.11,1711.41C2210.71,1708.01 2214.31,1702.61 2218.31,1680.22C2219.31,1674.22 2218.91,1673.62 2214.51,1673.62C2204.51,1673.62 2189.12,1678.22 2183.52,1682.82C2177.12,1688.42 2174.52,1696.82 2176.32,1706.81C2177.52,1712.81 2178.32,1713.61 2184.12,1713.61C2187.72,1713.61 2193.92,1712.61 2198.12,1711.41L2198.11,1711.41ZM2102.33,1705.21L2107.53,1700.61L2087.33,1682.81C2076.33,1673.21 2066.93,1665.61 2066.33,1666.21C2065.13,1667.41 2070.93,1690.8 2073.93,1696.6C2078.33,1705 2084.13,1709.6 2090.73,1709.6C2094.73,1709.6 2099.33,1707.8 2102.33,1705.2L2102.33,1705.21ZM2134.72,1686.61C2138.12,1678.41 2138.32,1669.41 2135.32,1655.82C2132.72,1643.22 2128.92,1641.82 2097.33,1640.22L2074.14,1639.02L2073.14,1645.42C2072.34,1651.42 2073.34,1653.02 2092.34,1669.41C2116.93,1690.81 2121.13,1693.6 2127.13,1693.6C2130.53,1693.6 2132.53,1691.8 2134.73,1686.6L2134.72,1686.61ZM2198.11,1658.62C2207.71,1653.22 2215.51,1648.02 2215.51,1647.42C2215.51,1645.82 2193.71,1639.62 2188.32,1639.62C2182.12,1639.62 2179.32,1642.62 2177.52,1650.62C2175.72,1658.62 2176.92,1670.22 2179.52,1669.22C2180.12,1668.82 2188.72,1664.22 2198.12,1658.62L2198.11,1658.62ZM2103.73,1598.43C2109.73,1596.63 2115.33,1594.63 2116.13,1593.63C2117.13,1592.83 2109.73,1585.23 2099.93,1577.03C2090.13,1568.63 2073.14,1552.24 2061.94,1540.64L2041.94,1519.44L2037.74,1524.84C2032.74,1531.24 2030.74,1541.04 2032.54,1550.03C2034.74,1559.63 2048.34,1585.82 2053.94,1591.02C2065.14,1601.62 2083.53,1604.22 2103.73,1598.42L2103.73,1598.43ZM2123.73,1497.45C2124.33,1458.46 2125.73,1420.67 2126.53,1413.47C2128.13,1398.87 2125.93,1388.48 2119.53,1382.68C2115.93,1379.28 2115.33,1379.48 2106.93,1384.28C2085.53,1396.88 2063.54,1423.67 2055.14,1447.07C2049.74,1462.87 2050.74,1481.06 2057.74,1494.66C2060.74,1500.06 2074.54,1520.05 2088.73,1539.05C2124.32,1586.64 2122.12,1589.24 2123.72,1497.46L2123.73,1497.45Z" style="fill:rgb(242,236,210);fill-rule:nonzero;"/>
                <path d="M2210.71,2895.95C2210.11,2862.16 2208.51,2725.99 2207.51,2593.42C2205.51,2359.27 2201.91,1946.16 2201.11,1875.58C2200.71,1846.99 2201.31,1837.19 2204.51,1822.59L2208.51,1804.59L2209.91,1876.57C2210.71,1916.16 2213.71,2048.53 2216.51,2170.5C2223.91,2501.63 2225.91,2639.6 2225.11,2792.36L2224.31,2930.33L2218.11,2943.93L2212.11,2957.73L2210.71,2895.94L2210.71,2895.95Z" style="fill:rgb(242,236,210);fill-rule:nonzero;"/>
                <path d="M2244.7,2879.16C2244.1,2868.76 2242.7,2756.99 2241.5,2630.42C2236.9,2118.13 2235.5,1977.17 2234.3,1905.58C2233.1,1838.2 2233.5,1828.6 2236.7,1811.6L2240.3,1792.6L2241.7,1803.6C2242.5,1809.6 2243.7,1850.59 2244.3,1894.58C2245.1,1938.57 2247.9,2062.34 2250.7,2169.52C2254.9,2325.49 2256.1,2415.07 2256.9,2617.42L2257.7,2870.36L2251.9,2884.16L2245.9,2897.96L2244.7,2879.16Z" style="fill:rgb(242,236,210);fill-rule:nonzero;"/>
            </g>
        </g>
    </g>
</svg>
